<svg width="200" height="200" viewBox="0 0 200 200" fill="none" xmlns="http://www.w3.org/2000/svg">
<path fill-rule="evenodd" clip-rule="evenodd" d="M136.301 158.049C141.438 164.556 147.603 171.919 147.603 171.919C185.445 170.72 200 145.891 200 145.891C200 90.7541 175.342 46.0623 175.342 46.0623C150.685 27.5692 127.226 28.0829 127.226 28.0829L124.829 30.8226C153.938 39.7267 167.466 52.5692 167.466 52.5692C149.658 42.8089 132.192 38.0144 115.925 36.1309C103.596 34.761 91.7808 35.1034 81.3356 36.4733C80.4387 36.4733 79.6723 36.6038 78.8085 36.7509C78.6829 36.7723 78.5551 36.794 78.4247 36.8158C72.4315 37.3295 57.8767 39.5555 39.5548 47.6034C33.2192 50.5144 29.4521 52.5692 29.4521 52.5692C29.4521 52.5692 43.6644 39.0418 74.4863 30.1377L72.774 28.0829C72.774 28.0829 49.3151 27.5692 24.6575 46.0623C24.6575 46.0623 0 90.7541 0 145.891C0 145.891 14.3836 170.72 52.226 171.919C52.226 171.919 58.5616 164.213 63.6986 157.706C41.9521 151.199 33.7329 137.501 33.7329 137.501C33.7329 137.501 35.4452 138.699 38.5274 140.412C38.6986 140.583 38.8699 140.754 39.2123 140.925C39.4692 141.097 39.726 141.225 39.9829 141.353C40.2397 141.482 40.4966 141.61 40.7534 141.782C45.0342 144.179 49.3151 146.062 53.2534 147.603C60.274 150.343 68.6644 153.083 78.4247 154.966C91.2671 157.364 106.336 158.22 122.774 155.138C130.822 153.768 139.041 151.371 147.603 147.775C153.596 145.549 160.274 142.295 167.295 137.672C167.295 137.672 158.733 151.713 136.301 158.049ZM50.5137 110.96C50.5137 100.514 58.2192 91.9528 67.9795 91.9528C77.7398 91.9528 85.6165 100.514 85.4452 110.96C85.4452 121.405 77.7398 129.966 67.9795 129.966C58.3904 129.966 50.5137 121.405 50.5137 110.96ZM113.014 110.96C113.014 100.514 120.719 91.9528 130.479 91.9528C140.24 91.9528 147.945 100.514 147.945 110.96C147.945 121.405 140.24 129.966 130.479 129.966C120.89 129.966 113.014 121.405 113.014 110.96Z" fill="white"/>
</svg>
