<svg width="4507" height="1200" viewBox="0 0 4507 1200" fill="none" xmlns="http://www.w3.org/2000/svg">
<path d="M184.736 394.656C190.866 318.553 228.001 247.565 297.198 201.016C323.806 183.105 352.762 170.329 383.609 161.791C547.814 116.297 766.648 204.221 779.027 394.954C786.132 504.411 719.522 580.752 672.555 671.721C657.271 701.334 644.753 732.4 635.241 764.341C626.146 794.889 624.434 829.04 612.135 858.434C600.931 885.201 574.283 888.744 548.332 888.465C509.485 888.047 470.617 889.281 431.89 892.147C398.754 894.615 368.723 900.764 339.229 881.102C285.038 845.04 296.979 780.441 284.123 725.434C271.824 672.755 243.763 626.127 223.484 576.374C200.637 520.272 179.781 456.071 184.736 394.656ZM585.089 824.582C586.045 822.851 587.099 821.577 587.478 820.124C589.289 813.358 591.119 806.591 592.552 799.745C599.219 767.983 608.055 736.857 620.155 706.707C651.918 627.56 716.199 569.07 738.309 483.793C760.24 399.213 738.647 314.274 672.914 255.725C588.731 180.757 455.094 165.095 353.479 211.365C292.541 239.107 243.405 292.662 223.364 356.803C203.762 419.512 218.23 485.624 241.475 545.208C263.525 601.728 303.348 654.964 315.308 714.628C319.905 737.574 323.547 760.719 327.587 783.765C328.781 790.571 329.876 797.377 331.169 804.163C332.503 811.188 337.239 813.278 343.289 809.616C344.583 808.84 345.797 807.905 346.931 806.93C355.111 799.904 364.046 794.073 373.818 789.536C390.853 781.615 404.565 784.859 422.138 784.083C432.049 783.645 438.676 778.272 442.915 769.515C451.632 751.505 448.308 729.554 449.243 710.269C450.796 678.567 453.94 640.078 423.511 620.256C411.829 612.634 397.759 610.445 384.564 606.703C364.962 601.131 344.842 592.772 328.523 580.334C316.323 571.04 305.139 560.731 297.158 547.417C288.72 533.327 287.964 519.038 296.76 504.849C302.85 495.037 312.124 489.186 322.851 485.604C361.559 472.648 407.033 483.753 438.079 509.386C453.184 521.844 458.02 536.949 465.065 555.219C471.831 572.772 475.752 591.2 478.319 609.848C478.459 610.783 478.857 611.698 479.155 612.614C479.513 612.614 479.852 612.614 480.21 612.614C480.946 609.748 481.921 606.922 482.399 604.017C488.529 567.04 507.037 541.626 543.834 530.501C562.541 524.849 583.796 521.964 603.199 525.088C623.817 528.412 645.012 540.77 649.171 562.622C655.102 593.807 623.797 608.096 597.488 608.017C568.134 607.917 528.391 599.38 505.863 624.037C498.002 632.654 493.345 643.7 489.603 654.745C480.807 680.796 473.344 709.195 475.016 736.917C476.349 759.007 486.459 775.923 507.693 783.526C518.997 787.566 531.038 787.964 542.182 792.561C556.392 798.432 568.691 808.004 579.437 818.831C581.209 820.582 582.9 822.353 585.089 824.582Z" fill="white"/>
<path d="M588.771 929.621C588.154 933.243 587.736 936.885 586.92 940.447C584.95 949.005 579.557 954.776 571.158 956.866C562.183 959.095 553.028 960.926 543.854 961.96C510.818 965.642 477.662 968.289 444.447 970.001C416.128 971.453 379.868 978.578 353.399 965.682C337.12 957.761 334.552 941.92 341.08 927.113C348.901 909.342 371.051 906.993 387.987 906.177C432.646 904.028 477.304 901.918 521.982 899.968C532.013 899.53 542.083 898.595 552.093 898.893C558.561 899.092 565.267 900.326 571.377 902.476C584.273 907.053 589.467 915.909 588.771 929.621Z" fill="white"/>
<path d="M345.836 1005.8C346.792 994.957 353.021 989.802 361.359 986.499C387.928 975.991 425.362 981.105 453.562 980.031C473.921 979.255 494.28 978.478 514.659 977.702C532.868 977.006 554.322 972.906 572.014 978.558C579.975 981.105 583.636 985.683 584.273 993.424C584.572 996.987 582.98 999.753 580.83 1002.2C573.049 1011.1 563.098 1015.95 551.416 1016.69C546.322 1017.01 541.127 1015.95 535.973 1015.51C534.898 1015.42 533.804 1015.38 532.749 1015.18C526.5 1014.06 522.341 1015.85 518.579 1021.7C510.101 1034.84 498.579 1044.71 482.857 1048.41C465.841 1052.41 450 1048.59 435.293 1039.95C427.372 1035.3 421.959 1026.16 412.346 1025.11C407.431 1024.57 402.495 1025.47 397.6 1026C383.33 1027.57 363.509 1027.91 351.687 1018.36C347.289 1014.84 345.399 1010.26 345.836 1005.8Z" fill="white"/>
<path d="M1218.86 548.214H1172.99V367.849C1172.99 353.082 1173.91 335.012 1175.72 313.618H1174.94C1172.1 325.797 1169.57 334.534 1167.36 339.848L1084.17 548.194H1052.29L968.924 341.42C966.596 335.33 964.128 326.076 961.541 313.638H960.765C961.8 324.782 962.317 342.992 962.317 368.247V548.214H919.569V269.517H984.666L1057.94 455.116C1063.52 469.365 1067.14 479.992 1068.83 486.997H1069.8C1074.6 472.35 1078.48 461.464 1081.47 454.339L1156.1 269.517H1218.86V548.214Z" fill="white"/>
<path d="M1295.21 307.409C1287.82 307.409 1281.51 305.021 1276.26 300.224C1271.01 295.428 1268.38 289.338 1268.38 281.955C1268.38 274.572 1271.01 268.422 1276.26 263.487C1281.51 258.571 1287.82 256.103 1295.21 256.103C1302.85 256.103 1309.34 258.571 1314.65 263.487C1319.96 268.422 1322.61 274.572 1322.61 281.955C1322.61 288.96 1319.96 294.95 1314.65 299.926C1309.34 304.921 1302.85 307.409 1295.21 307.409ZM1317.55 548.214H1272.46V349.201H1317.55V548.214Z" fill="white"/>
<path d="M1508.94 539.079C1493 548.273 1474.16 552.87 1452.39 552.87C1422.85 552.87 1399.01 543.636 1380.86 525.168C1362.71 506.699 1353.66 482.778 1353.66 453.364C1353.66 420.587 1363.41 394.257 1382.91 374.356C1402.41 354.475 1428.48 344.524 1461.14 344.524C1479.27 344.524 1495.27 347.708 1509.14 354.057V396.029C1495.27 385.66 1480.51 380.486 1464.82 380.486C1445.78 380.486 1430.16 386.934 1417.98 399.83C1405.8 412.726 1399.71 429.602 1399.71 450.458C1399.71 471.056 1405.44 487.316 1416.9 499.236C1428.36 511.157 1443.75 517.108 1463.05 517.108C1479.25 517.108 1494.54 511.336 1508.92 499.814V539.079H1508.94Z" fill="white"/>
<path d="M1659.14 392.148C1653.71 387.869 1645.87 385.74 1635.62 385.74C1622.26 385.74 1611.14 391.77 1602.18 403.81C1593.25 415.85 1588.77 432.249 1588.77 452.986V548.214H1543.67V349.201H1588.77V390.218H1589.54C1593.94 376.227 1600.73 365.301 1609.86 357.46C1619 349.619 1629.21 345.698 1640.47 345.698C1648.63 345.698 1654.86 346.932 1659.14 349.4V392.148Z" fill="white"/>
<path d="M1765.79 552.87C1735.08 552.87 1710.56 543.576 1692.23 524.989C1673.91 506.401 1664.73 481.743 1664.73 451.036C1664.73 417.602 1674.28 391.491 1693.39 372.704C1712.49 353.918 1738.25 344.524 1770.65 344.524C1801.73 344.524 1825.97 353.659 1843.33 371.928C1860.68 390.198 1869.38 415.532 1869.38 447.911C1869.38 479.654 1860.02 505.087 1841.3 524.193C1822.59 543.318 1797.41 552.87 1765.79 552.87ZM1767.94 380.486C1750.33 380.486 1736.4 386.635 1726.15 398.954C1715.92 411.273 1710.8 428.229 1710.8 449.881C1710.8 470.738 1715.98 487.156 1726.35 499.157C1736.71 511.137 1750.57 517.128 1767.94 517.128C1785.69 517.128 1799.32 511.237 1808.86 499.435C1818.39 487.654 1823.15 470.857 1823.15 449.105C1823.15 427.214 1818.39 410.298 1808.86 398.377C1799.32 386.456 1785.69 380.486 1767.94 380.486Z" fill="white"/>
<path d="M1892.86 541.984V500.192C1909.7 513.028 1928.3 519.436 1948.64 519.436C1975.85 519.436 1989.46 511.396 1989.46 495.336C1989.46 490.798 1988.29 486.957 1985.96 483.773C1983.63 480.609 1980.48 477.783 1976.52 475.315C1972.56 472.847 1967.91 470.658 1962.53 468.708C1957.16 466.758 1951.17 464.569 1944.56 462.101C1936.4 458.857 1929.04 455.434 1922.51 451.792C1915.96 448.17 1910.53 444.05 1906.19 439.453C1901.85 434.856 1898.57 429.642 1896.38 423.811C1894.17 417.98 1893.08 411.174 1893.08 403.412C1893.08 393.82 1895.35 385.362 1899.88 378.058C1904.42 370.734 1910.51 364.585 1918.15 359.59C1925.8 354.594 1934.47 350.853 1944.2 348.325C1953.94 345.798 1963.97 344.544 1974.34 344.544C1992.72 344.544 2009.18 347.33 2023.69 352.903V392.347C2009.7 382.755 1993.64 377.958 1975.49 377.958C1969.78 377.958 1964.64 378.536 1960.05 379.71C1955.45 380.884 1951.53 382.496 1948.28 384.566C1945.04 386.635 1942.51 389.123 1940.7 392.048C1938.89 394.954 1937.98 398.178 1937.98 401.661C1937.98 405.94 1938.89 409.562 1940.7 412.547C1942.51 415.532 1945.2 418.159 1948.76 420.428C1952.32 422.696 1956.6 424.766 1961.6 426.637C1966.59 428.507 1972.33 430.557 1978.79 432.766C1987.35 436.269 1995.01 439.831 2001.82 443.453C2008.62 447.075 2014.42 451.195 2019.21 455.792C2024.01 460.389 2027.69 465.703 2030.3 471.733C2032.88 477.763 2034.18 484.928 2034.18 493.206C2034.18 503.316 2031.85 512.133 2027.17 519.635C2022.52 527.158 2016.29 533.367 2008.51 538.303C2000.72 543.238 1991.75 546.88 1981.58 549.288C1971.41 551.676 1960.68 552.89 1949.42 552.89C1927.65 552.87 1908.8 549.248 1892.86 541.984Z" fill="white"/>
<path d="M2155.2 552.87C2124.49 552.87 2099.97 543.576 2081.64 524.989C2063.31 506.401 2054.14 481.743 2054.14 451.036C2054.14 417.602 2063.69 391.491 2082.8 372.704C2101.9 353.918 2127.65 344.524 2160.05 344.524C2191.14 344.524 2215.38 353.659 2232.73 371.928C2250.09 390.198 2258.78 415.532 2258.78 447.911C2258.78 479.654 2249.43 505.087 2230.7 524.193C2211.98 543.318 2186.8 552.87 2155.2 552.87ZM2157.33 380.486C2139.71 380.486 2125.78 386.635 2115.53 398.954C2105.31 411.273 2100.19 428.229 2100.19 449.881C2100.19 470.738 2105.36 487.156 2115.73 499.157C2126.1 511.137 2139.95 517.128 2157.33 517.128C2175.08 517.128 2188.71 511.237 2198.24 499.435C2207.78 487.654 2212.53 470.857 2212.53 449.105C2212.53 427.214 2207.78 410.298 2198.24 398.377C2188.71 386.456 2175.08 380.486 2157.33 380.486Z" fill="white"/>
<path d="M2519.17 384.566V349.201H2471.55V290.313L2426.45 303.15V349.201H2346.97V322.175C2346.97 297.438 2357.91 285.059 2379.8 285.059C2387.58 285.059 2394.51 286.811 2400.6 290.313V252.8C2394.11 250.332 2385.32 249.098 2374.17 249.098C2353.57 249.098 2336.4 255.148 2322.67 267.268C2308.93 279.388 2302.07 295.926 2302.07 316.921V349.181H2268.06V384.546H2302.07V548.194H2347.17V384.546H2426.45V497.067C2426.45 534.123 2445.76 552.651 2484.36 552.651C2498.75 552.651 2510.34 550.442 2519.15 546.044V510.282C2513.58 514.68 2506.97 516.889 2499.33 516.889C2489.36 516.889 2482.23 514.362 2477.96 509.307C2473.68 504.252 2471.55 495.833 2471.55 484.032V384.526H2519.17V384.566Z" fill="white"/>
<path d="M906.733 935.153V887.53C911.012 891.41 916.087 894.913 921.998 898.018C927.888 901.122 934.137 903.749 940.745 905.899C947.352 908.048 953.959 909.68 960.566 910.854C967.173 912.028 973.263 912.605 978.836 912.605C998.279 912.605 1012.75 909.361 1022.28 902.893C1031.81 896.426 1036.57 887.032 1036.57 874.713C1036.57 868.106 1034.98 862.375 1031.81 857.519C1028.63 852.663 1024.19 848.225 1018.5 844.205C1012.79 840.185 1006.1 836.324 998.378 832.642C990.677 828.94 982.418 825.1 973.601 821.079C964.148 816.025 955.332 810.91 947.173 805.736C939.013 800.561 931.908 794.83 925.898 788.541C919.868 782.252 915.152 775.167 911.709 767.267C908.266 759.366 906.554 750.092 906.554 739.484C906.554 726.389 909.5 715.026 915.39 705.374C921.281 695.722 929.063 687.761 938.715 681.472C948.367 675.183 959.352 670.527 971.651 667.482C983.95 664.437 996.528 662.924 1009.36 662.924C1038.52 662.924 1059.77 666.228 1073.11 672.835V718.509C1057.31 707.105 1036.97 701.413 1012.09 701.413C1005.22 701.413 998.398 702.07 991.592 703.364C984.786 704.657 978.696 706.807 973.323 709.772C967.949 712.757 963.571 716.578 960.208 721.235C956.845 725.892 955.153 731.544 955.153 738.151C955.153 744.36 956.447 749.753 959.034 754.291C961.621 758.828 965.422 762.968 970.397 766.729C975.393 770.491 981.482 774.152 988.667 777.715C995.851 781.277 1004.19 785.138 1013.64 789.277C1023.35 794.332 1032.53 799.646 1041.15 805.218C1049.76 810.791 1057.35 816.94 1063.89 823.687C1070.44 830.433 1075.62 837.916 1079.44 846.135C1083.26 854.374 1085.17 863.728 1085.17 874.216C1085.17 888.346 1082.32 900.267 1076.61 909.978C1070.9 919.69 1063.24 927.591 1053.58 933.681C1043.93 939.77 1032.83 944.169 1020.25 946.895C1007.67 949.622 994.398 950.975 980.408 950.975C975.751 950.975 970.019 950.617 963.213 949.9C956.407 949.184 949.441 948.149 942.317 946.796C935.192 945.442 928.446 943.791 922.097 941.84C915.749 939.81 910.634 937.621 906.733 935.153Z" fill="white"/>
<path d="M1214.74 944.089C1205.93 948.487 1194.35 950.696 1179.96 950.696C1141.35 950.696 1122.04 932.168 1122.04 895.112V782.59H1088.81V747.226H1122.04V701.174L1167.14 688.338V747.226H1214.76V782.59H1167.12V882.097C1167.12 893.878 1169.25 902.316 1173.53 907.371C1177.81 912.426 1184.93 914.954 1194.9 914.954C1202.55 914.954 1209.15 912.744 1214.72 908.346V944.089H1214.74Z" fill="white"/>
<path d="M1417.22 946.238H1372.12V914.755H1371.35C1358.25 938.855 1337.91 950.895 1310.33 950.895C1263.3 950.895 1239.78 922.655 1239.78 866.156V747.226H1284.88V861.499C1284.88 897.261 1298.67 915.133 1326.27 915.133C1339.62 915.133 1350.59 910.217 1359.21 900.366C1367.82 890.515 1372.12 877.619 1372.12 861.698V747.226H1417.22V946.238Z" fill="white"/>
<path d="M1646.9 946.238H1601.8V912.426H1601.03C1586.52 938.079 1564.17 950.915 1533.98 950.915C1509.5 950.915 1489.9 941.999 1475.19 924.188C1460.49 906.376 1453.14 882.117 1453.14 851.409C1453.14 818.492 1461.26 792.123 1477.54 772.302C1493.8 752.48 1515.47 742.569 1542.56 742.569C1569.38 742.569 1588.87 753.316 1601.05 774.829H1601.82V651.62H1646.92V946.238H1646.9ZM1602.4 855.27V829.219C1602.4 815.089 1597.8 803.109 1588.61 793.258C1579.41 783.406 1567.69 778.491 1553.42 778.491C1536.59 778.491 1523.33 784.78 1513.68 797.337C1504.03 809.915 1499.19 827.328 1499.19 849.618C1499.19 869.837 1503.83 885.798 1513.08 897.52C1522.34 909.242 1534.82 915.113 1550.5 915.113C1565.92 915.113 1578.42 909.441 1588.01 898.117C1597.6 886.793 1602.4 872.504 1602.4 855.27Z" fill="white"/>
<path d="M1864.34 858.971H1728.69C1729.21 877.38 1734.88 891.55 1745.69 901.54C1756.52 911.511 1771.38 916.506 1790.29 916.506C1811.54 916.506 1831.03 910.157 1848.78 897.46V933.8C1830.63 945.203 1806.67 950.895 1776.88 950.895C1747.6 950.895 1724.63 941.86 1707.98 923.79C1691.32 905.719 1683 880.286 1683 847.508C1683 816.542 1692.18 791.307 1710.5 771.804C1728.83 752.301 1751.6 742.549 1778.83 742.549C1806.05 742.549 1827.09 751.286 1841.99 768.779C1856.9 786.272 1864.34 810.571 1864.34 841.657V858.971ZM1820.8 827.09C1820.66 810.89 1816.84 798.292 1809.33 789.297C1801.81 780.302 1791.46 775.784 1778.25 775.784C1765.29 775.784 1754.31 780.521 1745.31 789.974C1736.3 799.427 1730.76 811.805 1728.69 827.09H1820.8Z" fill="white"/>
<path d="M2074.58 946.238H2029.48V834.095C2029.48 796.919 2016.33 778.312 1990.04 778.312C1976.31 778.312 1964.96 783.466 1956.03 793.755C1947.09 804.044 1942.61 817.039 1942.61 832.721V946.218H1897.34V747.206H1942.61V780.242H1943.39C1958.29 755.107 1979.79 742.529 2007.91 742.529C2029.54 742.529 2046.06 749.554 2057.46 763.624C2068.87 777.675 2074.56 797.994 2074.56 824.562V946.238H2074.58Z" fill="white"/>
<path d="M2224.57 944.089C2215.76 948.487 2204.17 950.696 2189.79 950.696C2151.18 950.696 2131.87 932.168 2131.87 895.112V782.59H2098.64V747.226H2131.87V701.174L2176.97 688.338V747.226H2224.59V782.59H2176.97V882.097C2176.97 893.878 2179.1 902.316 2183.38 907.371C2187.66 912.426 2194.78 914.954 2204.75 914.954C2212.39 914.954 2219 912.744 2224.57 908.346V944.089Z" fill="white"/>
<path d="M2586.95 946.238H2536.23L2511.15 875.31H2401.53L2377.43 946.238H2326.91L2431.27 667.542H2483.35L2586.95 946.238ZM2498.91 837.598L2460.24 726.429C2459.07 722.807 2457.84 716.976 2456.54 708.936H2455.77C2454.59 716.319 2453.3 722.15 2451.88 726.429L2413.59 837.598H2498.91Z" fill="white"/>
<path d="M2752.69 937.104C2736.75 946.298 2717.91 950.895 2696.13 950.895C2666.6 950.895 2642.76 941.661 2624.61 923.193C2606.46 904.724 2597.4 880.803 2597.4 851.389C2597.4 818.612 2607.15 792.282 2626.66 772.381C2646.16 752.5 2672.23 742.549 2704.89 742.549C2723.02 742.549 2739.02 745.733 2752.89 752.082V794.053C2739.02 783.685 2724.25 778.511 2708.57 778.511C2689.53 778.511 2673.9 784.959 2661.72 797.855C2649.54 810.751 2643.45 827.627 2643.45 848.483C2643.45 869.081 2649.19 885.34 2660.65 897.261C2672.11 909.182 2687.5 915.133 2706.8 915.133C2723 915.133 2738.28 909.361 2752.67 897.838V937.104H2752.69Z" fill="white"/>
<path d="M2929.91 937.104C2913.97 946.298 2895.13 950.895 2873.35 950.895C2843.82 950.895 2819.98 941.661 2801.83 923.193C2783.68 904.724 2774.62 880.803 2774.62 851.389C2774.62 818.612 2784.38 792.282 2803.88 772.381C2823.38 752.5 2849.45 742.549 2882.11 742.549C2900.24 742.549 2916.24 745.733 2930.11 752.082V794.053C2916.24 783.685 2901.47 778.511 2885.79 778.511C2866.75 778.511 2851.12 784.959 2838.94 797.855C2826.77 810.751 2820.68 827.627 2820.68 848.483C2820.68 869.081 2826.41 885.34 2837.87 897.261C2849.33 909.182 2864.72 915.133 2884.02 915.133C2900.22 915.133 2915.5 909.361 2929.89 897.838V937.104H2929.91Z" fill="white"/>
<path d="M3133.16 858.971H2997.52C2998.03 877.38 3003.71 891.55 3014.51 901.54C3025.34 911.511 3040.21 916.506 3059.11 916.506C3080.37 916.506 3099.85 910.157 3117.6 897.46V933.8C3099.45 945.203 3075.49 950.895 3045.7 950.895C3016.42 950.895 2993.46 941.86 2976.8 923.79C2960.14 905.719 2951.82 880.286 2951.82 847.508C2951.82 816.542 2961 791.307 2979.33 771.804C2997.66 752.301 3020.42 742.549 3047.65 742.549C3074.87 742.549 3095.91 751.286 3110.82 768.779C3125.72 786.272 3133.16 810.571 3133.16 841.657V858.971ZM3089.62 827.09C3089.48 810.89 3085.66 798.292 3078.16 789.297C3070.63 780.302 3060.29 775.784 3047.07 775.784C3034.12 775.784 3023.13 780.521 3014.13 789.974C3005.12 799.427 2999.59 811.805 2997.52 827.09H3089.62Z" fill="white"/>
<path d="M3211.44 946.238H3166.16V651.601H3211.44V946.238Z" fill="white"/>
<path d="M3428.68 858.971H3293.03C3293.55 877.38 3299.22 891.55 3310.03 901.54C3320.85 911.511 3335.72 916.506 3354.63 916.506C3375.88 916.506 3395.36 910.157 3413.12 897.46V933.8C3394.97 945.203 3371 950.895 3341.21 950.895C3311.94 950.895 3288.97 941.86 3272.31 923.79C3255.66 905.719 3247.34 880.286 3247.34 847.508C3247.34 816.542 3256.51 791.307 3274.84 771.804C3293.17 752.301 3315.94 742.549 3343.16 742.549C3370.39 742.549 3391.42 751.286 3406.33 768.779C3421.23 786.272 3428.68 810.571 3428.68 841.657V858.971ZM3385.15 827.09C3385.01 810.89 3381.19 798.292 3373.69 789.297C3366.17 780.302 3355.82 775.784 3342.61 775.784C3329.65 775.784 3318.66 780.521 3309.67 789.974C3300.65 799.427 3295.12 811.805 3293.05 827.09H3385.15Z" fill="white"/>
<path d="M3577.12 790.173C3571.69 785.894 3563.85 783.765 3553.6 783.765C3540.24 783.765 3529.12 789.795 3520.16 801.835C3511.21 813.875 3506.75 830.274 3506.75 851.011V946.238H3461.65V747.226H3506.75V788.242H3507.53C3511.92 774.252 3518.71 763.326 3527.85 755.485C3536.98 747.644 3547.19 743.723 3558.45 743.723C3566.61 743.723 3572.84 744.957 3577.12 747.425V790.173Z" fill="white"/>
<path d="M3751.79 946.238H3708.07V915.153H3707.3C3693.56 938.994 3673.4 950.915 3646.86 950.915C3627.29 950.915 3611.97 945.601 3600.88 934.974C3589.8 924.347 3584.27 910.297 3584.27 892.803C3584.27 855.23 3605.9 833.339 3649.18 827.109L3708.27 818.751C3708.27 790.372 3694.8 776.182 3667.85 776.182C3644.15 776.182 3622.75 784.342 3603.71 800.661V761.216C3624.7 748.778 3648.92 742.549 3676.39 742.549C3726.66 742.549 3751.79 767.306 3751.79 816.781V946.238ZM3708.27 848.483L3666.48 854.314C3653.52 856.006 3643.77 859.15 3637.22 863.748C3630.68 868.345 3627.41 876.405 3627.41 887.948C3627.41 896.366 3630.42 903.271 3636.45 908.645C3642.48 914.018 3650.54 916.705 3660.65 916.705C3674.38 916.705 3685.74 911.889 3694.76 902.217C3703.75 892.565 3708.27 880.425 3708.27 865.778V848.483Z" fill="white"/>
<path d="M3901.81 944.089C3892.99 948.487 3881.41 950.696 3867.02 950.696C3828.41 950.696 3809.11 932.168 3809.11 895.112V782.59H3775.88V747.226H3809.11V701.174L3854.21 688.338V747.226H3901.83V782.59H3854.21V882.097C3854.21 893.878 3856.34 902.316 3860.61 907.371C3864.89 912.426 3872.02 914.954 3881.99 914.954C3889.63 914.954 3896.24 912.744 3901.81 908.346V944.089Z" fill="white"/>
<path d="M4016.62 950.895C3985.91 950.895 3961.39 941.601 3943.06 923.013C3924.74 904.426 3915.56 879.768 3915.56 849.06C3915.56 815.626 3925.11 789.516 3944.22 770.729C3963.32 751.942 3989.08 742.549 4021.48 742.549C4052.56 742.549 4076.8 751.684 4094.16 769.953C4111.51 788.222 4120.21 813.557 4120.21 845.936C4120.21 877.679 4110.85 903.112 4092.13 922.217C4073.4 941.343 4048.24 950.895 4016.62 950.895ZM4018.77 778.511C4001.16 778.511 3987.23 784.66 3976.98 796.979C3966.75 809.298 3961.63 826.254 3961.63 847.906C3961.63 868.763 3966.81 885.181 3977.18 897.182C3987.54 909.162 4001.4 915.153 4018.77 915.153C4036.52 915.153 4050.15 909.262 4059.69 897.46C4069.22 885.679 4073.98 868.882 4073.98 847.13C4073.98 825.239 4069.22 808.323 4059.69 796.402C4050.15 784.481 4036.5 778.511 4018.77 778.511Z" fill="white"/>
<path d="M4271.57 790.173C4266.14 785.894 4258.3 783.765 4248.05 783.765C4234.7 783.765 4223.57 789.795 4214.62 801.835C4205.66 813.875 4201.2 830.274 4201.2 851.011V946.238H4156.11V747.226H4201.2V788.242H4201.98C4206.38 774.252 4213.16 763.326 4222.3 755.485C4231.43 747.644 4241.64 743.723 4252.91 743.723C4261.07 743.723 4267.3 744.957 4271.57 747.425V790.173Z" fill="white"/>
</svg>
