<svg width="1200" height="1200" viewBox="0 0 1200 1200" fill="none" xmlns="http://www.w3.org/2000/svg">
<path d="M302.736 394.653C308.866 318.552 346.001 247.565 415.197 201.016C441.805 183.105 470.761 170.329 501.607 161.791C665.811 116.297 884.643 204.22 897.021 394.952C904.126 504.407 837.517 580.748 790.551 671.715C775.267 701.328 762.749 732.394 753.236 764.335C744.141 794.883 742.43 829.033 730.131 858.427C718.927 885.194 692.279 888.736 666.328 888.458C627.481 888.04 588.615 889.274 549.887 892.14C516.752 894.607 486.721 900.757 457.228 881.094C403.037 845.034 414.978 780.435 402.122 725.428C389.823 672.75 361.763 626.122 341.483 576.37C318.637 520.269 297.781 456.068 302.736 394.653ZM703.085 824.595C704.041 822.864 705.095 821.59 705.474 820.138C707.285 813.371 709.115 806.605 710.548 799.759C717.215 767.997 726.051 736.872 738.151 706.721C769.913 627.575 834.194 569.086 856.304 483.81C878.235 399.23 856.642 314.293 790.909 255.744C706.707 180.777 573.092 165.114 471.477 211.384C410.54 239.126 361.404 292.68 341.364 356.821C321.762 419.529 336.23 485.641 359.474 545.224C381.524 601.743 421.346 654.979 433.307 714.642C437.904 737.588 441.546 760.733 445.586 783.778C446.78 790.584 447.874 797.391 449.168 804.177C450.501 811.202 455.238 813.291 461.288 809.63C462.581 808.854 463.795 807.918 464.93 806.943C473.109 799.918 482.045 794.087 491.816 789.55C508.851 781.629 522.563 784.873 540.136 784.097C550.046 783.659 556.673 778.285 560.912 769.529C569.629 751.519 566.306 729.568 567.241 710.284C568.793 678.581 571.938 640.093 541.509 620.271C529.827 612.649 515.757 610.46 502.562 606.719C482.96 601.146 462.84 592.788 446.521 580.35C434.322 571.056 423.137 560.747 415.157 547.433C406.719 533.343 405.963 519.055 414.759 504.865C420.849 495.054 430.123 489.203 440.849 485.621C479.557 472.665 525.031 483.77 556.076 509.403C571.181 521.861 576.017 536.966 583.062 555.235C589.829 572.787 593.749 591.216 596.316 609.863C596.456 610.798 596.854 611.714 597.152 612.629C597.51 612.629 597.849 612.629 598.207 612.629C598.943 609.764 599.918 606.938 600.396 604.032C606.526 567.056 625.034 541.642 661.831 530.518C680.538 524.866 701.792 521.98 721.195 525.104C741.813 528.428 763.008 540.786 767.167 562.638C773.097 593.823 741.793 608.112 715.484 608.032C686.13 607.933 646.387 599.395 623.859 624.052C615.998 632.67 611.342 643.715 607.6 654.76C598.804 680.81 591.341 709.209 593.013 736.931C594.346 759.021 604.456 775.937 625.69 783.539C636.994 787.579 649.034 787.977 660.179 792.575C674.388 798.445 686.687 808.018 697.434 818.844C699.205 820.575 700.896 822.366 703.085 824.595Z" fill="white"/>
<path d="M706.767 929.613C706.15 933.235 705.732 936.877 704.916 940.439C702.946 948.997 697.553 954.768 689.154 956.858C680.179 959.086 671.025 960.918 661.85 961.952C628.815 965.634 595.659 968.281 562.445 969.992C534.125 971.445 497.866 978.57 471.397 965.674C455.118 957.753 452.551 941.912 459.079 927.106C466.9 909.334 489.05 906.986 505.985 906.17C550.643 904.02 595.301 901.911 639.979 899.961C650.009 899.523 660.079 898.587 670.089 898.886C676.557 899.085 683.264 900.319 689.373 902.468C702.269 907.045 707.463 915.901 706.767 929.613Z" fill="white"/>
<path d="M463.835 1005.79C464.79 994.949 471.019 989.794 479.358 986.491C505.926 975.983 543.36 981.097 571.559 980.023C591.918 979.247 612.277 978.471 632.656 977.695C650.865 976.998 672.318 972.898 690.01 978.55C697.971 981.098 701.633 985.675 702.269 993.416C702.568 996.978 700.976 999.745 698.827 1002.19C691.045 1011.09 681.095 1015.94 669.413 1016.68C664.318 1017 659.124 1015.94 653.97 1015.51C652.895 1015.41 651.8 1015.37 650.746 1015.17C644.497 1014.05 640.337 1015.84 636.576 1021.7C628.098 1034.83 616.576 1044.7 600.854 1048.4C583.838 1052.42 567.997 1048.58 553.29 1039.94C545.37 1035.29 539.957 1026.15 530.344 1025.1C525.429 1024.56 520.493 1025.46 515.598 1025.99C501.329 1027.57 481.507 1027.9 469.686 1018.35C465.288 1014.85 463.397 1010.25 463.835 1005.79Z" fill="white"/>
</svg>
