<svg width="200" height="200" viewBox="0 0 200 200" fill="none" xmlns="http://www.w3.org/2000/svg">
<path d="M100 0C44.772 0 0 44.771 0 100C0 155.228 44.772 200 100 200C155.228 200 200 155.228 200 100C200 44.771 155.228 0 100 0ZM98.973 37.675C112.98 36.929 121.59 45.969 121.707 60.461C121.81 73.291 112.554 84.412 100.324 83.995C88.384 84.183 78.478 73.933 78.757 60.574C79.043 46.893 85.693 38.382 98.973 37.675ZM54.27 59.382C62.588 59.228 68.371 65.919 68.039 75.906C67.756 84.414 61.867 91.428 53.399 91.128C46.547 90.885 39.748 84.738 39.891 74.292C40.014 65.356 46.379 58.659 54.27 59.382ZM54.358 106.859C48.939 114.839 46.668 123.699 46.709 132.101C47.002 142.254 46.663 141.34 38.464 141.313C31.13 141.288 25.614 135.66 25.55 128.324C25.461 118.023 29.818 109.919 38.693 105.058C42.548 102.947 47.586 102.71 52.149 102.284C54.802 102.036 55.878 104.62 54.358 106.859ZM141.445 140.626C140.227 144.219 136.994 146.864 132.945 147.597C129.925 148.144 126.835 148.511 123.77 148.564C115.977 148.697 108.18 148.608 100.385 148.606C91.706 148.603 83.027 148.527 74.349 148.627C67.218 148.71 61.595 146.346 58.411 139.578C58.235 139.205 57.954 138.837 57.918 138.448C57.124 129.759 57.402 121.331 62.379 113.592C65.987 107.982 71.154 104.259 76.78 101.291C79.822 99.686 83.606 99.012 87.101 98.836C94.775 98.448 102.478 98.594 110.169 98.614C121.651 98.645 130.782 103.591 137.273 112.822C143.191 121.237 144.774 130.805 141.445 140.626ZM132.513 73.638C133.064 63.424 140.741 57.57 150.758 59.711C156.409 60.919 160.852 67.811 160.59 74.972C160.571 75.491 160.524 76.009 160.49 76.528C160.579 86.552 151.123 92.987 143.637 90.815C137.119 88.925 131.966 83.774 132.513 73.638ZM159.784 141.254C153.785 141.204 153.636 141.112 153.769 134.997C153.99 124.854 152.32 115.272 146.154 106.838C144.479 104.547 145.993 102.278 149.201 102.167C157.426 101.883 164.535 104.667 169.223 111.453C171.853 115.259 173.668 119.874 174.84 124.388C177.1 133.091 169.692 142.469 159.784 141.254Z" fill="#FDFDFD"/>
</svg>
