<svg width="200" height="200" viewBox="0 0 200 200" fill="none" xmlns="http://www.w3.org/2000/svg">
<path d="M99.996 18.0209C126.698 18.0209 129.858 18.1241 140.404 18.6044C150.153 19.0489 155.448 20.6764 158.973 22.0458C163.641 23.8598 166.971 26.0271 170.472 29.5241C173.973 33.025 176.14 36.3553 177.95 41.0233C179.32 44.5481 180.947 49.8432 181.392 59.5919C181.872 70.1346 181.975 73.2981 181.975 100C181.975 126.702 181.872 129.861 181.392 140.408C180.947 150.157 179.32 155.452 177.95 158.977C176.136 163.645 173.969 166.975 170.472 170.476C166.971 173.977 163.641 176.144 158.973 177.954C155.448 179.324 150.153 180.951 140.404 181.396C129.861 181.876 126.698 181.979 99.996 181.979C73.2942 181.979 70.1306 181.876 59.588 181.396C49.8392 180.951 44.5441 179.324 41.0193 177.954C36.3514 176.14 33.0211 173.973 29.5201 170.476C26.0191 166.975 23.8519 163.645 22.0418 158.977C20.6724 155.452 19.045 150.157 18.6004 140.408C18.1201 129.865 18.0169 126.702 18.0169 100C18.0169 73.2981 18.1201 70.1385 18.6004 59.5919C19.045 49.8432 20.6724 44.5481 22.0418 41.0233C23.8558 36.3553 26.0231 33.025 29.5201 29.5241C33.0211 26.0231 36.3514 23.8558 41.0193 22.0458C44.5441 20.6764 49.8392 19.0489 59.588 18.6044C70.1346 18.1241 73.2942 18.0209 99.996 18.0209ZM99.996 0.00396729C72.8377 0.00396729 69.432 0.119079 58.7663 0.607309C48.1245 1.09157 40.8566 2.78252 34.4937 5.25543C27.9165 7.81169 22.3395 11.2293 16.7824 16.7904C11.2253 22.3475 7.80376 27.9244 5.25146 34.4977C2.77855 40.8606 1.0876 48.1284 0.603342 58.7703C0.115111 69.436 0 72.8417 0 100C0 127.158 0.115111 130.564 0.603342 141.23C1.0876 151.872 2.77855 159.139 5.25146 165.502C7.80772 172.08 11.2253 177.656 16.7864 183.214C22.3475 188.775 27.9205 192.192 34.4977 194.749C40.8566 197.221 48.1284 198.912 58.7703 199.397C69.436 199.885 72.8417 200 100 200C127.158 200 130.564 199.885 141.23 199.397C151.872 198.912 159.143 197.221 165.502 194.749C172.08 192.192 177.657 188.775 183.214 183.214C188.775 177.653 192.192 172.08 194.749 165.502C197.221 159.143 198.912 151.872 199.397 141.23C199.885 130.564 200 127.158 200 100C200 72.8417 199.885 69.436 199.397 58.7703C198.912 48.1284 197.221 40.8566 194.749 34.4977C192.192 27.9205 188.775 22.3435 183.214 16.7864C177.653 11.2253 172.08 7.80772 165.502 5.25146C159.135 2.78252 151.868 1.09157 141.226 0.607309C130.56 0.119079 127.154 0.00396729 99.996 0.00396729Z" fill="white"/>
<path d="M99.996 48.6524C71.635 48.6524 48.6484 71.6429 48.6484 100C48.6484 128.357 71.639 151.348 99.996 151.348C128.353 151.348 151.344 128.357 151.344 100C151.344 71.6429 128.357 48.6524 99.996 48.6524ZM99.996 133.331C81.5862 133.331 66.6653 118.406 66.6653 100C66.6653 81.5901 81.5901 66.6693 99.996 66.6693C118.402 66.6693 133.327 81.5941 133.327 100C133.327 118.41 118.406 133.331 99.996 133.331Z" fill="white"/>
<path d="M153.376 58.6195C160.003 58.6195 165.375 53.2472 165.375 46.6201C165.375 39.993 160.003 34.6207 153.376 34.6207C146.749 34.6207 141.377 39.993 141.377 46.6201C141.377 53.2472 146.749 58.6195 153.376 58.6195Z" fill="white"/>
</svg>
