<svg width="200" height="200" viewBox="0 0 200 200" fill="none" xmlns="http://www.w3.org/2000/svg">
<path d="M62.896 181.255C138.368 181.255 179.648 118.727 179.648 64.5032C179.648 62.7272 179.648 60.9592 179.528 59.1992C187.559 53.3905 194.491 46.1982 200 37.9592C192.511 41.2776 184.567 43.4538 176.432 44.4152C184.998 39.2871 191.409 31.2214 194.472 21.7192C186.417 26.4988 177.605 29.8673 168.416 31.6792C162.229 25.1007 154.047 20.7445 145.135 19.2849C136.223 17.8253 127.079 19.3435 119.116 23.6046C111.154 27.8658 104.819 34.6323 101.09 42.8571C97.3605 51.0819 96.4462 60.3064 98.488 69.1032C82.174 68.2853 66.2144 64.0458 51.6451 56.6599C37.0759 49.274 24.2227 38.9067 13.92 26.2312C8.67274 35.2645 7.0656 45.9581 9.42583 56.1347C11.7861 66.3113 17.9362 75.2058 26.624 81.0072C20.0939 80.8137 13.7062 79.0521 8 75.8712C8 76.0392 8 76.2152 8 76.3912C8.00259 85.8649 11.2821 95.0462 17.2823 102.378C23.2824 109.709 31.6338 114.739 40.92 116.615C34.879 118.263 28.5406 118.504 22.392 117.319C25.0141 125.473 30.1189 132.602 36.9926 137.712C43.8662 142.821 52.1649 145.654 60.728 145.815C46.1979 157.235 28.2485 163.434 9.768 163.415C6.50323 163.409 3.24163 163.211 0 162.823C18.7651 174.865 40.5993 181.253 62.896 181.223" fill="white"/>
</svg>
